{
    "asset": {
        "copyright": "(C)2021 Admin",
        "generator": "maya2glTF v1.2.1 03f669e0d38e",
        "version": "2.0"
    },
    "scenes": [
        {
            "nodes": [
                1,
                0
            ]
        }
    ],
    "scene": 0,
    "nodes": [
        {
            "name": "restroom_01",
            "mesh": 0
        },
        {
            "name": "cdc_01",
            "mesh": 1,
            "translation": [
                291.1922302246094,
                0.0,
                -112.7456283569336
            ],
            "rotation": [
                0.0,
                -0.7071067690849304,
                0.0,
                0.7071067690849304
            ]
        }
    ],
    "meshes": [
        {
            "name": "restroom_01Shape",
            "extras": {
                "targetNames": []
            },
            "primitives": [
                {
                    "attributes": {
                        "NORMAL": 1,
                        "POSITION": 2,
                        "TANGENT": 3,
                        "TEXCOORD_0": 4
                    },
                    "indices": 0,
                    "mode": 4,
                    "material": 0
                }
            ]
        },
        {
            "name": "cdc_01Shape",
            "extras": {
                "targetNames": []
            },
            "primitives": [
                {
                    "attributes": {
                        "NORMAL": 6,
                        "POSITION": 7,
                        "TANGENT": 8,
                        "TEXCOORD_0": 9
                    },
                    "indices": 5,
                    "mode": 4,
                    "material": 1
                }
            ]
        }
    ],
    "materials": [
        {
            "name": "restroom_01_mtl",
            "pbrMetallicRoughness": {
                "baseColorFactor": [
                    1.0,
                    1.0,
                    1.0,
                    1.0
                ],
                "baseColorTexture": {
                    "index": 0
                },
                "metallicFactor": 1.0,
                "roughnessFactor": 1.0,
                "metallicRoughnessTexture": {
                    "index": 1
                }
            },
            "emissiveFactor": [
                0.0,
                0.0,
                0.0
            ],
            "normalTexture": {
                "index": 2
            },
            "occlusionTexture": {
                "index": 3
            }
        },
        {
            "name": "cdc_01_mtl",
            "pbrMetallicRoughness": {
                "baseColorFactor": [
                    1.0,
                    1.0,
                    1.0,
                    1.0
                ],
                "baseColorTexture": {
                    "index": 4
                },
                "metallicFactor": 1.0,
                "roughnessFactor": 1.0,
                "metallicRoughnessTexture": {
                    "index": 5
                }
            },
            "emissiveFactor": [
                0.0,
                0.0,
                0.0
            ],
            "normalTexture": {
                "index": 6
            },
            "occlusionTexture": {
                "index": 7
            }
        }
    ],
    "textures": [
        {
            "sampler": 0,
            "source": 0
        },
        {
            "sampler": 0,
            "source": 1
        },
        {
            "sampler": 0,
            "source": 2
        },
        {
            "sampler": 0,
            "source": 3
        },
        {
            "sampler": 0,
            "source": 4
        },
        {
            "sampler": 0,
            "source": 5
        },
        {
            "sampler": 0,
            "source": 6
        },
        {
            "sampler": 0,
            "source": 7
        }
    ],
    "images": [
        {
            "uri": "restroom_01_mtl_baseColor.png"
        },
        {
            "uri": "restroom_01_mtl_roughness-restroom_01_mtl_metallic.jpg"
        },
        {
            "uri": "restroom_01_mtl_normal.png"
        },
        {
            "uri": "restroom_01_mtl_occlusion.jpg"
        },
        {
            "uri": "cdc_01_mtl_baseColor.jpg"
        },
        {
            "uri": "cdc_01_mtl_roughness-cdc_01_mtl_metallic.jpg"
        },
        {
            "uri": "cdc_01_mtl_normal.png"
        },
        {
            "uri": "cdc_01_mtl_occlusion.jpg"
        }
    ],
    "samplers": [
        {
            "magFilter": 9729,
            "minFilter": 9987,
            "wrapS": 10497,
            "wrapT": 10497
        }
    ],
    "accessors": [
        {
            "name": "restroom_01Shape#0/indices",
            "bufferView": 0,
            "byteOffset": 0,
            "componentType": 5123,
            "count": 42591,
            "max": [
                28644
            ],
            "min": [
                0
            ],
            "type": "SCALAR"
        },
        {
            "name": "restroom_01Shape#0/vertices/NORMAL",
            "bufferView": 1,
            "byteOffset": 0,
            "componentType": 5126,
            "count": 28645,
            "max": [
                1.0,
                1.0,
                1.0
            ],
            "min": [
                -1.0,
                -1.0,
                -1.0
            ],
            "type": "VEC3"
        },
        {
            "name": "restroom_01Shape#0/vertices/POSITION",
            "bufferView": 1,
            "byteOffset": 343740,
            "componentType": 5126,
            "count": 28645,
            "max": [
                745.051513671875,
                220.0,
                11.75
            ],
            "min": [
                -11.000060081481934,
                -9.999999974752428e-7,
                -337.0
            ],
            "type": "VEC3"
        },
        {
            "name": "restroom_01Shape#0/vertices/TANGENT",
            "bufferView": 2,
            "byteOffset": 0,
            "componentType": 5126,
            "count": 28645,
            "max": [
                1.0,
                1.0,
                1.0,
                1.0
            ],
            "min": [
                -1.0,
                -1.0,
                -1.0,
                1.0
            ],
            "type": "VEC4"
        },
        {
            "name": "restroom_01Shape#0/vertices/TEXCOORD_0",
            "bufferView": 3,
            "byteOffset": 0,
            "componentType": 5126,
            "count": 28645,
            "max": [
                0.9945178031921388,
                0.998046875
            ],
            "min": [
                0.001953125,
                0.001953125
            ],
            "type": "VEC2"
        },
        {
            "name": "cdc_01Shape#0/indices",
            "bufferView": 4,
            "byteOffset": 0,
            "componentType": 5125,
            "count": 321714,
            "max": [
                212659
            ],
            "min": [
                0
            ],
            "type": "SCALAR"
        },
        {
            "name": "cdc_01Shape#0/vertices/NORMAL",
            "bufferView": 1,
            "byteOffset": 687480,
            "componentType": 5126,
            "count": 212660,
            "max": [
                1.0,
                1.0,
                1.0
            ],
            "min": [
                -1.0,
                -1.0,
                -1.0
            ],
            "type": "VEC3"
        },
        {
            "name": "cdc_01Shape#0/vertices/POSITION",
            "bufferView": 1,
            "byteOffset": 3239400,
            "componentType": 5126,
            "count": 212660,
            "max": [
                30.0,
                173.8000030517578,
                23.700000762939458
            ],
            "min": [
                -30.0,
                -0.0000019999999949504856,
                -22.500009536743165
            ],
            "type": "VEC3"
        },
        {
            "name": "cdc_01Shape#0/vertices/TANGENT",
            "bufferView": 2,
            "byteOffset": 458320,
            "componentType": 5126,
            "count": 212660,
            "max": [
                1.0,
                1.0,
                1.0,
                1.0
            ],
            "min": [
                -1.0,
                -1.0,
                -1.0,
                1.0
            ],
            "type": "VEC4"
        },
        {
            "name": "cdc_01Shape#0/vertices/TEXCOORD_0",
            "bufferView": 3,
            "byteOffset": 229160,
            "componentType": 5126,
            "count": 212660,
            "max": [
                0.9965664744377136,
                0.998046875
            ],
            "min": [
                0.001953125,
                0.001953125
            ],
            "type": "VEC2"
        }
    ],
    "bufferViews": [
        {
            "name": "restroom_01_0304/data/indices-2",
            "buffer": 0,
            "byteOffset": 12869496,
            "byteLength": 85182,
            "target": 34963
        },
        {
            "name": "restroom_01_0304/data/vertices-12",
            "buffer": 0,
            "byteOffset": 3860880,
            "byteLength": 5791320,
            "byteStride": 12,
            "target": 34962
        },
        {
            "name": "restroom_01_0304/data/vertices-16",
            "buffer": 0,
            "byteOffset": 0,
            "byteLength": 3860880,
            "byteStride": 16,
            "target": 34962
        },
        {
            "name": "restroom_01_0304/data/vertices-8",
            "buffer": 0,
            "byteOffset": 9652200,
            "byteLength": 1930440,
            "byteStride": 8,
            "target": 34962
        },
        {
            "name": "restroom_01_0304/data/indices-4",
            "buffer": 0,
            "byteOffset": 11582640,
            "byteLength": 1286856,
            "target": 34963
        }
    ],
    "buffers": [
        {
            "name": "restroom_01_0304/data",
            "byteLength": 12954678,
            "uri": "restroom_01_03040.bin"
        }
    ]
}
