{
    "asset": {
        "copyright": "(C)2021 Admin",
        "generator": "maya2glTF v1.2.1 03f669e0d38e",
        "version": "2.0"
    },
    "scenes": [
        {
            "nodes": [
                0
            ]
        }
    ],
    "scene": 0,
    "nodes": [
        {
            "name": "kaist_Grp",
            "children": [
                10,
                2,
                1
            ]
        },
        {
            "name": "restroom_01",
            "mesh": 0
        },
        {
            "name": "cdc_head_Grp",
            "children": [
                3
            ],
            "translation": [
                284.58782958984377,
                153.0,
                -113.3861846923828
            ]
        },
        {
            "name": "cdc_head_Grp:PIV",
            "children": [
                8,
                4
            ],
            "translation": [
                -284.58782958984377,
                -153.0,
                113.3861846923828
            ]
        },
        {
            "name": "group1",
            "children": [
                5
            ],
            "translation": [
                262.1721496582031,
                162.576416015625,
                -113.38654327392578
            ]
        },
        {
            "name": "spray_01",
            "children": [
                6
            ],
            "translation": [
                -0.000007878000360506121,
                -0.8764190673828125,
                -0.0000050439998631190978
            ],
            "scale": [
                0.0,
                0.0,
                0.0
            ]
        },
        {
            "name": "spray_01:PIV",
            "children": [
                7
            ],
            "translation": [
                -262.1875,
                -161.6875,
                113.390625
            ]
        },
        {
            "name": "spray_01Shape",
            "mesh": 1,
            "translation": [
                -0.03125,
                0.0,
                0.0
            ]
        },
        {
            "name": "cdc_head_01",
            "children": [
                9
            ],
            "translation": [
                284.0877990722656,
                163.40000915527345,
                -113.38655090332033
            ]
        },
        {
            "name": "cdc_head_01:PIV",
            "mesh": 2,
            "translation": [
                -284.0877990722656,
                -163.40000915527345,
                113.38655090332033
            ]
        },
        {
            "name": "cdc_body_01",
            "children": [
                11
            ],
            "translation": [
                283.9878234863281,
                76.44999694824219,
                -113.3861846923828
            ]
        },
        {
            "name": "cdc_body_01:PIV",
            "mesh": 3,
            "translation": [
                -283.9878234863281,
                -76.44999694824219,
                113.3861846923828
            ]
        }
    ],
    "meshes": [
        {
            "name": "restroom_01Shape",
            "extras": {
                "targetNames": []
            },
            "primitives": [
                {
                    "attributes": {
                        "NORMAL": 1,
                        "POSITION": 2,
                        "TANGENT": 3,
                        "TEXCOORD_0": 4
                    },
                    "indices": 0,
                    "mode": 4,
                    "material": 0
                }
            ]
        },
        {
            "name": "spray_01Shape",
            "extras": {
                "targetNames": []
            },
            "primitives": [
                {
                    "attributes": {
                        "NORMAL": 6,
                        "POSITION": 7,
                        "TANGENT": 8,
                        "TEXCOORD_0": 9
                    },
                    "indices": 5,
                    "mode": 4,
                    "material": 1
                }
            ]
        },
        {
            "name": "cdc_head_01Shape",
            "extras": {
                "targetNames": []
            },
            "primitives": [
                {
                    "attributes": {
                        "NORMAL": 11,
                        "POSITION": 12,
                        "TANGENT": 13,
                        "TEXCOORD_0": 14
                    },
                    "indices": 10,
                    "mode": 4,
                    "material": 2
                }
            ]
        },
        {
            "name": "cdc_body_01Shape",
            "extras": {
                "targetNames": []
            },
            "primitives": [
                {
                    "attributes": {
                        "NORMAL": 16,
                        "POSITION": 17,
                        "TANGENT": 18,
                        "TEXCOORD_0": 19
                    },
                    "indices": 15,
                    "mode": 4,
                    "material": 2
                }
            ]
        }
    ],
    "materials": [
        {
            "name": "restroom_01_mtl",
            "pbrMetallicRoughness": {
                "baseColorFactor": [
                    1.0,
                    1.0,
                    1.0,
                    1.0
                ],
                "baseColorTexture": {
                    "index": 0
                },
                "metallicFactor": 1.0,
                "roughnessFactor": 1.0,
                "metallicRoughnessTexture": {
                    "index": 1
                }
            },
            "emissiveFactor": [
                0.0,
                0.0,
                0.0
            ],
            "normalTexture": {
                "index": 2
            },
            "occlusionTexture": {
                "index": 3
            }
        },
        {
            "name": "GLSLShader3",
            "pbrMetallicRoughness": {
                "baseColorFactor": [
                    1.0,
                    1.0,
                    1.0,
                    1.0
                ],
                "baseColorTexture": {
                    "index": 4
                },
                "metallicFactor": 0.5,
                "roughnessFactor": 0.5
            },
            "emissiveFactor": [
                0.0,
                0.0,
                0.0
            ],
            "alphaMode": "BLEND"
        },
        {
            "name": "cdc_01_mtl",
            "pbrMetallicRoughness": {
                "baseColorFactor": [
                    1.0,
                    1.0,
                    1.0,
                    1.0
                ],
                "baseColorTexture": {
                    "index": 5
                },
                "metallicFactor": 1.0,
                "roughnessFactor": 1.0,
                "metallicRoughnessTexture": {
                    "index": 6
                }
            },
            "emissiveFactor": [
                0.0,
                0.0,
                0.0
            ],
            "normalTexture": {
                "index": 7
            },
            "occlusionTexture": {
                "index": 8
            }
        }
    ],
    "textures": [
        {
            "sampler": 0,
            "source": 0
        },
        {
            "sampler": 0,
            "source": 1
        },
        {
            "sampler": 0,
            "source": 2
        },
        {
            "sampler": 0,
            "source": 3
        },
        {
            "sampler": 0,
            "source": 4
        },
        {
            "sampler": 0,
            "source": 5
        },
        {
            "sampler": 0,
            "source": 6
        },
        {
            "sampler": 0,
            "source": 7
        },
        {
            "sampler": 0,
            "source": 8
        }
    ],
    "images": [
        {
            "uri": "restroom_01_mtl_baseColor.png"
        },
        {
            "uri": "restroom_01_mtl_roughness-restroom_01_mtl_metallic.jpg"
        },
        {
            "uri": "restroom_01_mtl_normal.png"
        },
        {
            "uri": "restroom_01_mtl_occlusion.jpg"
        },
        {
            "uri": "spray_01.png"
        },
        {
            "uri": "cdc_01_mtl_baseColor.jpg"
        },
        {
            "uri": "cdc_01_mtl_roughness-cdc_01_mtl_metallic.jpg"
        },
        {
            "uri": "cdc_01_mtl_normal.png"
        },
        {
            "uri": "cdc_01_mtl_occlusion.jpg"
        }
    ],
    "samplers": [
        {
            "magFilter": 9729,
            "minFilter": 9987,
            "wrapS": 10497,
            "wrapT": 10497
        }
    ],
    "animations": [
        {
            "name": "spray_An",
            "channels": [
                {
                    "sampler": 0,
                    "target": {
                        "node": 2,
                        "path": "rotation"
                    }
                },
                {
                    "sampler": 1,
                    "target": {
                        "node": 4,
                        "path": "scale"
                    }
                },
                {
                    "sampler": 2,
                    "target": {
                        "node": 5,
                        "path": "translation"
                    }
                },
                {
                    "sampler": 3,
                    "target": {
                        "node": 5,
                        "path": "scale"
                    }
                },
                {
                    "sampler": 4,
                    "target": {
                        "node": 7,
                        "path": "translation"
                    }
                }
            ],
            "samplers": [
                {
                    "input": 20,
                    "interpolation": "LINEAR",
                    "output": 21
                },
                {
                    "input": 20,
                    "interpolation": "LINEAR",
                    "output": 22
                },
                {
                    "input": 20,
                    "interpolation": "LINEAR",
                    "output": 23
                },
                {
                    "input": 20,
                    "interpolation": "LINEAR",
                    "output": 24
                },
                {
                    "input": 20,
                    "interpolation": "LINEAR",
                    "output": 25
                }
            ]
        }
    ],
    "accessors": [
        {
            "name": "restroom_01Shape#0/indices",
            "bufferView": 0,
            "byteOffset": 0,
            "componentType": 5123,
            "count": 42591,
            "max": [
                28644
            ],
            "min": [
                0
            ],
            "type": "SCALAR"
        },
        {
            "name": "restroom_01Shape#0/vertices/NORMAL",
            "bufferView": 1,
            "byteOffset": 0,
            "componentType": 5126,
            "count": 28645,
            "max": [
                1.0,
                1.0,
                1.0
            ],
            "min": [
                -1.0,
                -1.0,
                -1.0
            ],
            "type": "VEC3"
        },
        {
            "name": "restroom_01Shape#0/vertices/POSITION",
            "bufferView": 1,
            "byteOffset": 343740,
            "componentType": 5126,
            "count": 28645,
            "max": [
                745.051513671875,
                220.0,
                11.75
            ],
            "min": [
                -11.000060081481934,
                -9.999999974752428e-7,
                -337.0
            ],
            "type": "VEC3"
        },
        {
            "name": "restroom_01Shape#0/vertices/TANGENT",
            "bufferView": 2,
            "byteOffset": 0,
            "componentType": 5126,
            "count": 28645,
            "max": [
                1.0,
                1.0,
                1.0,
                1.0
            ],
            "min": [
                -1.0,
                -1.0,
                -1.0,
                1.0
            ],
            "type": "VEC4"
        },
        {
            "name": "restroom_01Shape#0/vertices/TEXCOORD_0",
            "bufferView": 3,
            "byteOffset": 0,
            "componentType": 5126,
            "count": 28645,
            "max": [
                0.9945178031921388,
                0.998046875
            ],
            "min": [
                0.001953125,
                0.001953125
            ],
            "type": "VEC2"
        },
        {
            "name": "spray_01Shape#0/indices",
            "bufferView": 0,
            "byteOffset": 85182,
            "componentType": 5123,
            "count": 216,
            "max": [
                73
            ],
            "min": [
                0
            ],
            "type": "SCALAR"
        },
        {
            "name": "spray_01Shape#0/vertices/NORMAL",
            "bufferView": 1,
            "byteOffset": 687480,
            "componentType": 5126,
            "count": 74,
            "max": [
                0.161580890417099,
                0.9868595600128174,
                0.9868595004081726
            ],
            "min": [
                0.1615799069404602,
                -0.9868595004081726,
                -0.9868596792221068
            ],
            "type": "VEC3"
        },
        {
            "name": "spray_01Shape#0/vertices/POSITION",
            "bufferView": 1,
            "byteOffset": 688368,
            "componentType": 5126,
            "count": 74,
            "max": [
                262.1722412109375,
                204.20603942871098,
                -70.88053131103516
            ],
            "min": [
                7.917560577392578,
                119.19397735595705,
                -155.8925323486328
            ],
            "type": "VEC3"
        },
        {
            "name": "spray_01Shape#0/vertices/TANGENT",
            "bufferView": 2,
            "byteOffset": 458320,
            "componentType": 5126,
            "count": 74,
            "max": [
                0.8777099847793579,
                0.7586563229560852,
                0.9954537749290466,
                1.0
            ],
            "min": [
                -0.8663626909255981,
                -0.8527722358703613,
                -0.5155602693557739,
                1.0
            ],
            "type": "VEC4"
        },
        {
            "name": "spray_01Shape#0/vertices/TEXCOORD_0",
            "bufferView": 3,
            "byteOffset": 229160,
            "componentType": 5126,
            "count": 74,
            "max": [
                0.9856935143470764,
                0.8387491703033447
            ],
            "min": [
                0.01225295662879944,
                0.1994226574897766
            ],
            "type": "VEC2"
        },
        {
            "name": "cdc_head_01Shape#0/indices",
            "bufferView": 0,
            "byteOffset": 85614,
            "componentType": 5123,
            "count": 13572,
            "max": [
                8778
            ],
            "min": [
                0
            ],
            "type": "SCALAR"
        },
        {
            "name": "cdc_head_01Shape#0/vertices/NORMAL",
            "bufferView": 1,
            "byteOffset": 689256,
            "componentType": 5126,
            "count": 8779,
            "max": [
                1.0,
                1.0,
                1.0
            ],
            "min": [
                -1.0,
                -1.0,
                -1.0
            ],
            "type": "VEC3"
        },
        {
            "name": "cdc_head_01Shape#0/vertices/POSITION",
            "bufferView": 1,
            "byteOffset": 794604,
            "componentType": 5126,
            "count": 8779,
            "max": [
                307.08782958984377,
                173.8000030517578,
                -91.38655090332033
            ],
            "min": [
                261.0877990722656,
                153.0,
                -135.3865509033203
            ],
            "type": "VEC3"
        },
        {
            "name": "cdc_head_01Shape#0/vertices/TANGENT",
            "bufferView": 2,
            "byteOffset": 459504,
            "componentType": 5126,
            "count": 8779,
            "max": [
                1.0,
                1.0,
                1.0,
                1.0
            ],
            "min": [
                -1.0,
                -1.0,
                -1.0,
                1.0
            ],
            "type": "VEC4"
        },
        {
            "name": "cdc_head_01Shape#0/vertices/TEXCOORD_0",
            "bufferView": 3,
            "byteOffset": 229752,
            "componentType": 5126,
            "count": 8779,
            "max": [
                0.7815101742744446,
                0.998046875
            ],
            "min": [
                0.001953125,
                0.22649258375167848
            ],
            "type": "VEC2"
        },
        {
            "name": "cdc_body_01Shape#0/indices",
            "bufferView": 4,
            "byteOffset": 0,
            "componentType": 5125,
            "count": 308142,
            "max": [
                204205
            ],
            "min": [
                0
            ],
            "type": "SCALAR"
        },
        {
            "name": "cdc_body_01Shape#0/vertices/NORMAL",
            "bufferView": 1,
            "byteOffset": 899952,
            "componentType": 5126,
            "count": 204206,
            "max": [
                1.0,
                1.0,
                1.0
            ],
            "min": [
                -1.0,
                -1.0,
                -1.0
            ],
            "type": "VEC3"
        },
        {
            "name": "cdc_body_01Shape#0/vertices/POSITION",
            "bufferView": 1,
            "byteOffset": 3350424,
            "componentType": 5126,
            "count": 204206,
            "max": [
                307.0878601074219,
                152.89999389648438,
                -83.38618469238281
            ],
            "min": [
                260.8878173828125,
                -0.0000019999999949504856,
                -143.3861846923828
            ],
            "type": "VEC3"
        },
        {
            "name": "cdc_body_01Shape#0/vertices/TANGENT",
            "bufferView": 2,
            "byteOffset": 599968,
            "componentType": 5126,
            "count": 204206,
            "max": [
                1.0,
                1.0,
                1.0,
                1.0
            ],
            "min": [
                -1.0,
                -1.0,
                -1.0,
                1.0
            ],
            "type": "VEC4"
        },
        {
            "name": "cdc_body_01Shape#0/vertices/TEXCOORD_0",
            "bufferView": 3,
            "byteOffset": 299984,
            "componentType": 5126,
            "count": 204206,
            "max": [
                0.9965664744377136,
                0.998046875
            ],
            "min": [
                0.001953125,
                0.001953125
            ],
            "type": "VEC2"
        },
        {
            "name": "spray_An/anim/frames",
            "bufferView": 5,
            "byteOffset": 0,
            "componentType": 5126,
            "count": 500,
            "max": [
                20.79166603088379
            ],
            "min": [
                0.0
            ],
            "type": "SCALAR"
        },
        {
            "name": "cdc_head_Grp/anim/spray_An/R",
            "bufferView": 6,
            "byteOffset": 0,
            "componentType": 5126,
            "count": 500,
            "max": [
                0.0,
                0.5671862363815308,
                0.0,
                1.0
            ],
            "min": [
                0.0,
                -0.5781154632568359,
                0.0,
                0.8159549832344055
            ],
            "type": "VEC4"
        },
        {
            "name": "group1/anim/spray_An/S",
            "bufferView": 7,
            "byteOffset": 0,
            "componentType": 5126,
            "count": 500,
            "max": [
                1.0,
                1.100000023841858,
                1.100000023841858
            ],
            "min": [
                0.8999999761581421,
                0.8999999761581421,
                0.8999999761581421
            ],
            "type": "VEC3"
        },
        {
            "name": "spray_01/anim/spray_An/T",
            "bufferView": 7,
            "byteOffset": 6000,
            "componentType": 5126,
            "count": 500,
            "max": [
                0.01534770056605339,
                -0.8764190673828125,
                -0.0000050439998631190978
            ],
            "min": [
                -0.000007878000360506121,
                -0.888916015625,
                -0.004079141188412905
            ],
            "type": "VEC3"
        },
        {
            "name": "spray_01/anim/spray_An/S",
            "bufferView": 7,
            "byteOffset": 12000,
            "componentType": 5126,
            "count": 500,
            "max": [
                1.0,
                1.0,
                1.0
            ],
            "min": [
                0.0,
                0.0,
                0.0
            ],
            "type": "VEC3"
        },
        {
            "name": "spray_01Shape/anim/spray_An/T",
            "bufferView": 7,
            "byteOffset": 18000,
            "componentType": 5126,
            "count": 500,
            "max": [
                0.0625,
                0.0625,
                0.0625
            ],
            "min": [
                -0.0625,
                -0.0625,
                -0.0625
            ],
            "type": "VEC3"
        }
    ],
    "bufferViews": [
        {
            "name": "restroom_01_0304/data/indices-2",
            "buffer": 0,
            "byteOffset": 12868360,
            "byteLength": 112758,
            "target": 34963
        },
        {
            "name": "restroom_01_0304/data/vertices-12",
            "buffer": 0,
            "byteOffset": 3899264,
            "byteLength": 5800896,
            "byteStride": 12,
            "target": 34962
        },
        {
            "name": "restroom_01_0304/data/vertices-16",
            "buffer": 0,
            "byteOffset": 8000,
            "byteLength": 3867264,
            "byteStride": 16,
            "target": 34962
        },
        {
            "name": "restroom_01_0304/data/vertices-8",
            "buffer": 0,
            "byteOffset": 9700160,
            "byteLength": 1933632,
            "byteStride": 8,
            "target": 34962
        },
        {
            "name": "restroom_01_0304/data/indices-4",
            "buffer": 0,
            "byteOffset": 11635792,
            "byteLength": 1232568,
            "target": 34963
        },
        {
            "name": "restroom_01_0304/data/generic-4",
            "buffer": 0,
            "byteOffset": 11633792,
            "byteLength": 2000
        },
        {
            "name": "restroom_01_0304/data/generic-16",
            "buffer": 0,
            "byteOffset": 0,
            "byteLength": 8000
        },
        {
            "name": "restroom_01_0304/data/generic-12",
            "buffer": 0,
            "byteOffset": 3875264,
            "byteLength": 24000
        }
    ],
    "buffers": [
        {
            "name": "restroom_01_0304/data",
            "byteLength": 12981118,
            "uri": "restroom_01_03040.bin"
        }
    ]
}
